# xmcd
#
# Track frame offsets:
#	150
#	14531
#	30727
#	49032
#	67409
#	88378
#	105660
#	124932
#	143010
#	162415
#
# Disc length: 2415 seconds
#
# Revision: 2
# Processed by: cddbd v1.5.2PL0 Copyright (c) Steve Scherf et al.
# Submitted via: EZCDAudioConverter 8.0.2.1
#
DISCID=91096d0a
DTITLE=S.H.E - SHERO
DYEAR=2010
DGENRE=Pop
TTITLE0=SHERO
TTITLE1=如果你是女孩
TTITLE2=我爱雨夜花
TTITLE3=两个人的荒岛(Duet with周定纬)
TTITLE4=少了一个人
TTITLE5=收留我
TTITLE6=超可能
TTITLE7=爱上你
TTITLE8=你不会
TTITLE9=爱就对了
EXTD=
EXTT0=
EXTT1=
EXTT2=
EXTT3=
EXTT4=
EXTT5=
EXTT6=
EXTT7=
EXTT8=
EXTT9=
PLAYORDER=
